<svg width="45" height="48" viewBox="0 0 45 48" fill="none" xmlns="http://www.w3.org/2000/svg">
<path d="M41.9998 25.58C41.6852 28.9844 40.4075 32.2288 38.3163 34.9336C36.2251 37.6383 33.4068 39.6916 30.1912 40.8531C26.9756 42.0146 23.4958 42.2362 20.1588 41.4922C16.8218 40.7481 13.7658 39.0691 11.3483 36.6516C8.93072 34.234 7.25168 31.178 6.50762 27.841C5.76355 24.504 5.98523 21.0242 7.14672 17.8086C8.30821 14.593 10.3615 11.7747 13.0662 9.68351C15.771 7.59228 19.0154 6.31461 22.4198 6C20.4266 8.69653 19.4675 12.0189 19.7169 15.3628C19.9662 18.7068 21.4075 21.8501 23.7786 24.2212C26.1497 26.5923 29.293 28.0336 32.637 28.2829C35.9809 28.5323 39.3033 27.5732 41.9998 25.58Z" stroke="#1E1E1E" stroke-width="4" stroke-linecap="round" stroke-linejoin="round"/>
</svg>
