<svg width="56" height="56" viewBox="0 0 56 56" fill="none" xmlns="http://www.w3.org/2000/svg">
<path d="M50.3686 7.22096C50.3549 5.79275 49.7788 4.42751 48.7652 3.42124C47.7516 2.41496 46.3822 1.84876 44.954 1.8454L10.599 1.73685C9.17224 1.73713 7.80376 2.30316 6.79364 3.31084C5.78352 4.31851 5.21419 5.68561 5.21045 7.11241V42.5529C5.21045 45.5164 7.62902 47.7634 10.599 47.7634H39.9475L38.5363 42.9871L50.3686 53.8424V7.22096ZM35.2417 35.802C35.2417 35.802 34.2951 34.6741 33.5049 33.7047C36.9503 32.7342 38.2649 30.612 38.2649 30.612C37.3186 31.2398 36.3045 31.7587 35.2417 32.1589C34.0147 32.6684 32.7371 33.0465 31.4304 33.2868C29.1789 33.7003 26.8702 33.6915 24.622 33.2607C23.2995 33.0151 22.0052 32.6369 20.7585 32.1318C20.0991 31.8792 19.4578 31.5814 18.8393 31.2405C18.7601 31.1884 18.6819 31.1624 18.6027 31.1092C18.5495 31.0831 18.5234 31.0571 18.4941 31.0571C18.0208 30.7944 17.7581 30.6109 17.7581 30.6109C17.7581 30.6109 19.0195 32.6832 22.3586 33.6787C21.5694 34.6752 20.5968 35.8291 20.5968 35.8291C14.7881 35.6456 12.5801 31.8702 12.5801 31.8702C12.5801 23.505 16.3654 16.7139 16.3654 16.7139C20.1506 13.9078 23.7253 13.9871 23.7253 13.9871L23.988 14.3019C19.2562 15.6393 17.1014 17.7105 17.1014 17.7105C17.1014 17.7105 17.6789 17.3957 18.6515 16.9756C21.4641 15.7435 23.6992 15.4287 24.622 15.3245C24.7692 15.2939 24.9189 15.2761 25.0692 15.2713C26.8306 15.0427 28.613 15.0252 30.3785 15.2192C33.1507 15.5376 35.8364 16.3832 38.291 17.7105C38.291 17.7105 36.2144 15.7402 31.7452 14.405L32.1132 13.986C32.1132 13.986 35.7139 13.9068 39.4742 16.7172C39.4742 16.7172 43.2595 23.5083 43.2595 31.8734C43.2595 31.843 41.0504 35.6185 35.2417 35.802Z" fill="black"/>
<path d="M23.0187 23.6646C21.5206 23.6646 20.3374 24.9499 20.3374 26.5489C20.3374 28.1479 21.5467 29.4331 23.0187 29.4331C24.5167 29.4331 25.6999 28.1489 25.6999 26.5489C25.7271 24.9466 24.5167 23.6646 23.0187 23.6646ZM32.6126 23.6646C31.1146 23.6646 29.9313 24.9499 29.9313 26.5489C29.9313 28.1479 31.1406 29.4331 32.6126 29.4331C34.1117 29.4331 35.2939 28.1489 35.2939 26.5489C35.2939 24.9488 34.0857 23.6646 32.6126 23.6646Z" fill="black"/>
</svg>
