<svg width="56" height="56" viewBox="0 0 56 56" fill="none" xmlns="http://www.w3.org/2000/svg">
<path d="M37.9208 7.526C40.6057 7.53402 43.1782 8.60411 45.0767 10.5026C46.9751 12.401 48.0452 14.9736 48.0532 17.6584V37.9209C48.0452 40.6057 46.9751 43.1783 45.0767 45.0767C43.1782 46.9752 40.6057 48.0453 37.9208 48.0533H17.6583C14.9735 48.0453 12.4009 46.9752 10.5025 45.0767C8.60403 43.1783 7.53395 40.6057 7.52593 37.9209V17.6584C7.53395 14.9736 8.60403 12.401 10.5025 10.5026C12.4009 8.60411 14.9735 7.53402 17.6583 7.526H37.9208ZM37.9208 3.47371H17.6583C9.85657 3.47371 3.47363 9.85664 3.47363 17.6584V37.9209C3.47363 45.7227 9.85657 52.1056 17.6583 52.1056H37.9208C45.7226 52.1056 52.1055 45.7227 52.1055 37.9209V17.6584C52.1055 9.85664 45.7226 3.47371 37.9208 3.47371Z" fill="black"/>
<path d="M40.9601 17.6584C40.3589 17.6584 39.7713 17.4801 39.2714 17.1461C38.7716 16.8121 38.382 16.3374 38.152 15.782C37.9219 15.2266 37.8617 14.6155 37.979 14.0259C38.0963 13.4363 38.3858 12.8947 38.8108 12.4696C39.2359 12.0445 39.7775 11.7551 40.3671 11.6378C40.9567 11.5205 41.5679 11.5807 42.1233 11.8107C42.6787 12.0408 43.1534 12.4304 43.4873 12.9302C43.8213 13.4301 43.9996 14.0177 43.9996 14.6189C44.0004 15.0183 43.9224 15.4139 43.77 15.783C43.6175 16.1522 43.3937 16.4876 43.1113 16.77C42.8288 17.0524 42.4934 17.2763 42.1243 17.4287C41.7551 17.5812 41.3595 17.6592 40.9601 17.6584ZM27.7893 19.684C29.3925 19.684 30.9596 20.1594 32.2926 21.05C33.6256 21.9407 34.6645 23.2066 35.278 24.6877C35.8915 26.1689 36.052 27.7986 35.7392 29.371C35.4265 30.9433 34.6545 32.3876 33.5209 33.5212C32.3873 34.6548 30.943 35.4268 29.3707 35.7396C27.7983 36.0523 26.1685 35.8918 24.6874 35.2783C23.2063 34.6648 21.9404 33.6259 21.0497 32.2929C20.159 30.9599 19.6836 29.3928 19.6836 27.7896C19.6859 25.6406 20.5407 23.5802 22.0603 22.0606C23.5799 20.541 25.6403 19.6863 27.7893 19.684ZM27.7893 15.6317C25.3847 15.6317 23.0341 16.3447 21.0347 17.6807C19.0353 19.0166 17.477 20.9154 16.5568 23.137C15.6366 25.3586 15.3958 27.8031 15.865 30.1615C16.3341 32.52 17.492 34.6863 19.1923 36.3866C20.8927 38.0869 23.059 39.2449 25.4174 39.714C27.7758 40.1831 30.2204 39.9423 32.442 39.0221C34.6636 38.1019 36.5624 36.5436 37.8983 34.5442C39.2342 32.5449 39.9473 30.1943 39.9473 27.7896C39.9473 24.5651 38.6664 21.4727 36.3863 19.1927C34.1062 16.9126 31.0138 15.6317 27.7893 15.6317Z" fill="black"/>
</svg>
